<svg viewBox="0 0 512 512" xml:space="preserve" xmlns="http://www.w3.org/2000/svg" enable-background="new 0 0 512 512"><path d="M339.7 6v106.8h108.6z" fill="#6c757d" class="fill-000000"></path><path d="M327.7 6.3H81v231.3h197.7c55.6 0 100.9 45.3 100.9 100.9 0 55.6-45.3 100.9-100.9 100.9H81V506h366.7l.6-381.2H327.7V6.3z" fill="#6c757d" class="fill-000000"></path><path d="M367.6 338.6c0-49.1-39.8-88.9-88.9-88.9h-215v177.8h215c49.1 0 88.9-39.8 88.9-88.9zM178.2 361c0 10.3-3.1 18.5-9.4 24.5-6.2 6.1-14.3 9.1-24.3 9.1-10.5 0-18.9-2.7-25-8.1-6.2-5.4-9.1-13.2-8.9-23.6l.1-.4H128c0 6.1 1.5 10.6 4.4 13.5 2.9 2.9 7 4.4 12.2 4.4 4.7 0 8.5-1.8 11.4-5.3 3-3.5 4.4-8.2 4.4-14.1v-74.8h17.8V361zm86.1 25.7c-7 5.3-16.1 7.9-27.4 7.9-10.9 0-20.3-2.9-28.4-8.7-8.1-5.8-12-13.9-11.7-24.5l.1-.4h17.2c0 6.4 2.2 11.2 6.6 14.5 4.4 3.3 9.8 4.9 16.2 4.9 6.3 0 11.2-1.3 14.7-4s5.3-6.3 5.3-10.8c0-4.5-1.6-8.1-4.7-10.9-3.2-2.8-8.8-5.4-16.8-7.6-11.5-3.2-20.4-7.4-26.6-12.5-6.2-5.2-9.4-11.9-9.4-20.2 0-8.6 3.4-15.7 10.3-21.3 6.9-5.6 15.7-8.4 26.4-8.4 11.6 0 20.8 3.1 27.7 9.3 6.9 6.2 10.3 13.8 10 22.9l-.1.4h-17.2c0-5.6-1.9-10.1-5.6-13.4-3.7-3.3-8.7-5-14.9-5-6 0-10.7 1.4-13.9 4.3-3.3 2.8-4.9 6.5-4.9 11 0 4.1 1.8 7.5 5.4 10.2 3.6 2.7 9.5 5.2 17.8 7.6 11.2 3.1 19.8 7.4 25.6 12.8 5.9 5.4 8.8 12.3 8.8 20.7-.1 8.9-3.6 15.9-10.5 21.2z" fill="#6c757d" class="fill-000000"></path></svg>