<svg viewBox="0 0 512 512" xml:space="preserve" xmlns="http://www.w3.org/2000/svg" enable-background="new 0 0 512 512"><path d="M339.7 6v106.8h108.6zM367.6 338.6c0-49.1-39.8-88.9-88.9-88.9h-215v177.8h215c49.1 0 88.9-39.8 88.9-88.9zm-81.1-30.3h10.8v56.3h30.4v8.7h-41.3v-65zm-145.5 65h-10.8v-27.7h-29.1v27.7H90.2v-65H101v28.6h29.1v-28.6H141v65zm57.7-56.3h-20.1v56.3h-10.8V317H148v-8.7h50.7v8.7zm74.1 56.3H262v-46.7h-.3l-17.9 46.7h-7.5l-18.2-47.6-.3.1v47.5H207v-65h14.2l18.7 50h.3l18.8-50h13.8v65z" fill="#6c757d" class="fill-000000"></path><path d="M327.7 6.3H81v231.3h197.7c55.6 0 100.9 45.3 100.9 100.9s-45.3 100.9-100.9 100.9H81V506h366.6l.6-381.2H327.7V6.3z" fill="#6c757d" class="fill-000000"></path></svg>