<svg xmlns="http://www.w3.org/2000/svg" version="1.1" xmlns:xlink="http://www.w3.org/1999/xlink" xmlns:svgjs="http://svgjs.dev/svgjs" width="1440" height="560" preserveAspectRatio="none" viewBox="0 0 1440 560"><g mask="url(&quot;#SvgjsMask1014&quot;)" fill="none"><rect width="1440" height="560" x="0" y="0" fill="rgba(45, 40, 62, 1)"></rect><path d="M 0,275 C 57.6,236.2 172.8,96.6 288,81 C 403.2,65.4 460.8,209 576,197 C 691.2,185 748.8,12.8 864,21 C 979.2,29.2 1036.8,221.6 1152,238 C 1267.2,254.4 1382.4,130 1440,103L1440 560L0 560z" fill="rgba(0, 0, 0, 0.49)"></path><path d="M 0,518 C 96,472 288,292.4 480,288 C 672,283.6 768,475.8 960,496 C 1152,516.2 1344,410.4 1440,389L1440 560L0 560z" fill="rgba(0, 0, 0, 0.35)"></path></g><defs><mask id="SvgjsMask1014"><rect width="1440" height="560" fill="#ffffff"></rect></mask></defs></svg>