<svg viewBox="0 0 512 512" xml:space="preserve" xmlns="http://www.w3.org/2000/svg" enable-background="new 0 0 512 512"><path d="M339.7 6v106.8h108.6zM367.6 338.6c0-49.1-39.8-88.9-88.9-88.9h-215v177.8h215c49.1 0 88.9-39.8 88.9-88.9zm-254.9 29.6c3.5 4.7 8.3 7.1 14.4 7.1 6 0 10.5-1.6 13.6-4.7 3.1-3.1 4.7-7.6 4.7-13.5h14.1l.1.4c.2 8.8-2.7 15.9-8.6 21.4-5.9 5.4-13.8 8.1-23.9 8.1-10.2 0-18.4-3.4-24.8-10.3-6.3-6.9-9.5-15.7-9.5-26.3v-16.6c0-10.7 3.1-19.4 9.4-26.3 6.2-6.9 14.4-10.4 24.5-10.4 10.3 0 18.4 2.6 24.3 7.9 5.9 5.2 8.8 12.4 8.6 21.6l-.1.4h-14.1c0-5.8-1.6-10.3-4.7-13.4-3.2-3.1-7.8-4.7-13.9-4.7-5.9 0-10.6 2.4-14.1 7.1-3.5 4.7-5.2 10.6-5.2 17.8v16.8c-.1 6.9 1.6 12.9 5.2 17.6zm113 12.2c-5.7 4.3-13.2 6.5-22.4 6.5-8.9 0-16.6-2.4-23.3-7.1-6.6-4.7-9.8-11.4-9.6-20l.1-.4h14.1c0 5.2 1.8 9.2 5.4 11.9 3.6 2.7 8 4 13.2 4 5.2 0 9.2-1.1 12-3.3 2.9-2.2 4.3-5.1 4.3-8.9 0-3.6-1.3-6.6-3.9-9-2.6-2.3-7.2-4.4-13.7-6.2-9.4-2.6-16.7-6-21.8-10.2-5.1-4.2-7.7-9.7-7.7-16.6 0-7 2.8-12.9 8.4-17.4 5.6-4.6 12.8-6.8 21.6-6.8 9.5 0 17 2.5 22.7 7.6 5.7 5.1 8.4 11.3 8.2 18.8l-.1.4h-14.1c0-4.6-1.5-8.3-4.6-11-3.1-2.7-7.1-4.1-12.2-4.1-4.9 0-8.7 1.2-11.4 3.5-2.7 2.3-4 5.3-4 9 0 3.4 1.5 6.1 4.4 8.3 2.9 2.2 7.8 4.3 14.5 6.2 9.2 2.6 16.2 6.1 21 10.5 4.8 4.4 7.2 10.1 7.2 17 .3 7.2-2.6 13-8.3 17.3zm20.4-20.6.1-.4h14.1c0 5.2 1.8 9.2 5.4 11.9 3.6 2.7 8 4 13.2 4 5.2 0 9.2-1.1 12-3.3 2.9-2.2 4.3-5.1 4.3-8.9 0-3.6-1.3-6.6-3.9-9-2.6-2.3-7.2-4.4-13.7-6.2-9.4-2.6-16.7-6-21.8-10.2-5.1-4.2-7.7-9.7-7.7-16.6 0-7 2.8-12.9 8.4-17.4 5.6-4.6 12.8-6.8 21.6-6.8 9.5 0 17 2.5 22.7 7.6 5.7 5.1 8.4 11.3 8.2 18.8l-.1.4H295c0-4.6-1.5-8.3-4.6-11-3.1-2.7-7.1-4.1-12.2-4.1-4.9 0-8.7 1.2-11.4 3.5-2.7 2.3-4 5.3-4 9 0 3.4 1.5 6.1 4.4 8.3 2.9 2.2 7.8 4.3 14.5 6.2 9.2 2.6 16.2 6.1 21 10.5 4.8 4.4 7.2 10.1 7.2 17 0 7.3-2.8 13-8.5 17.4-5.7 4.3-13.2 6.5-22.4 6.5-8.9 0-16.6-2.4-23.3-7.1-6.6-4.8-9.8-11.5-9.6-20.1z" fill="#6c757d" class="fill-000000"></path><path d="M327.7 6.3H81v231.3h197.7c55.6 0 100.9 45.3 100.9 100.9s-45.3 100.9-100.9 100.9H81V506h366.7l.6-381.2H327.7V6.3z" fill="#6c757d" class="fill-000000"></path></svg>